<svg width="355" height="31" viewBox="0 0 355 31" fill="none" xmlns="http://www.w3.org/2000/svg">
<path d="M93.9439 5.22766L93.854 30.4208L93.9439 5.22766Z" fill="white"/>
<path d="M25.3582 11.4895L13.2726 11.4384L13.2906 4.54437L25.3582 11.4895Z" fill="white"/>
<path d="M13.2184 23.9506L13.2723 12.5115L20.5021 12.5286L13.2184 23.9506Z" fill="white"/>
<path d="M0 12.4597L12.1036 12.5107L12.0676 19.4048L0 12.4597Z" fill="white"/>
<path d="M12.1395 0L12.1036 11.439L4.85577 11.422L12.1395 0Z" fill="white"/>
<path fill-rule="evenodd" clip-rule="evenodd" d="M27.1924 12.5631L33.541 24.0702L30.1239 24.0532L28.6132 21.1594L21.4194 21.1424L19.8367 24.0362L16.4197 24.0192L22.9301 12.5461L27.1924 12.5631ZM22.588 18.9623L27.4439 18.9793L25.1238 14.7067H24.98L22.588 18.9623Z" fill="white"/>
<path d="M42.3896 14.8941L42.3536 24.0862H39.4401L39.4761 14.8941L34.4404 14.8771V12.579L47.5332 12.6131L47.5152 14.9111L42.3896 14.8941Z" fill="white"/>
<path fill-rule="evenodd" clip-rule="evenodd" d="M50.5186 18.4515C50.5365 14.7066 53.558 12.1192 58.2339 12.1362C63.1257 12.1532 66.0392 14.8938 66.0213 18.4174C66.0033 22.673 62.2625 24.6647 58.18 24.6476C54.0435 24.6306 50.5006 22.4517 50.5186 18.4515ZM53.6661 18.3481C53.6481 20.8163 55.3206 22.4335 58.3241 22.4505C61.2016 22.4505 63.0001 20.8844 63.018 18.3821C63.036 16.2543 61.7771 14.2968 58.36 14.2798C54.9789 14.2627 53.6661 16.1011 53.6661 18.3481Z" fill="white"/>
<path d="M81.0743 24.2226H80.4449L73.1431 15.5922L73.1072 24.1885H70.1937L70.2296 12.6984H73.1611H73.7906L81.0743 21.3288L81.1103 12.7325H84.0418L83.9878 24.2226H81.0743Z" fill="white"/>
<path d="M113.004 24.9791C112.131 24.9791 111.321 24.8205 110.573 24.5031C109.825 24.1858 109.179 23.7551 108.635 23.2111C108.091 22.6558 107.666 22.0041 107.36 21.2561C107.054 20.5081 106.901 19.7091 106.901 18.8591V18.8251C106.901 17.9751 107.054 17.1818 107.36 16.4451C107.666 15.6971 108.091 15.0455 108.635 14.4901C109.179 13.9235 109.831 13.4815 110.59 13.1641C111.349 12.8355 112.188 12.6711 113.106 12.6711C113.673 12.6711 114.183 12.7165 114.636 12.8071C115.089 12.8978 115.503 13.0225 115.877 13.1811C116.251 13.3398 116.597 13.5325 116.914 13.7591C117.231 13.9858 117.526 14.2351 117.798 14.5071L116.132 16.4281C115.667 16.0088 115.191 15.6801 114.704 15.4421C114.228 15.2041 113.69 15.0851 113.089 15.0851C112.59 15.0851 112.126 15.1815 111.695 15.3741C111.276 15.5668 110.913 15.8331 110.607 16.1731C110.301 16.5131 110.063 16.9098 109.893 17.3631C109.723 17.8051 109.638 18.2811 109.638 18.7911V18.8251C109.638 19.3351 109.723 19.8168 109.893 20.2701C110.063 20.7235 110.295 21.1201 110.59 21.4601C110.896 21.8001 111.259 22.0721 111.678 22.2761C112.109 22.4688 112.579 22.5651 113.089 22.5651C113.769 22.5651 114.341 22.4405 114.806 22.1911C115.282 21.9305 115.752 21.5905 116.217 21.1711L117.883 22.8541C117.577 23.1828 117.26 23.4775 116.931 23.7381C116.602 23.9988 116.24 24.2255 115.843 24.4181C115.458 24.5995 115.033 24.7355 114.568 24.8261C114.103 24.9281 113.582 24.9791 113.004 24.9791ZM128.427 24.9791C127.509 24.9791 126.664 24.8205 125.894 24.5031C125.123 24.1745 124.454 23.7381 123.888 23.1941C123.332 22.6388 122.896 21.9928 122.579 21.2561C122.273 20.5081 122.12 19.7091 122.12 18.8591V18.8251C122.12 17.9751 122.278 17.1818 122.596 16.4451C122.913 15.6971 123.349 15.0455 123.905 14.4901C124.471 13.9235 125.14 13.4815 125.911 13.1641C126.693 12.8355 127.543 12.6711 128.461 12.6711C129.379 12.6711 130.223 12.8355 130.994 13.1641C131.764 13.4815 132.427 13.9178 132.983 14.4731C133.549 15.0171 133.986 15.6631 134.292 16.4111C134.609 17.1478 134.768 17.9411 134.768 18.7911V18.8251C134.768 19.6751 134.609 20.4741 134.292 21.2221C133.974 21.9588 133.532 22.6105 132.966 23.1771C132.41 23.7325 131.742 24.1745 130.96 24.5031C130.189 24.8205 129.345 24.9791 128.427 24.9791ZM128.461 22.5651C128.993 22.5651 129.475 22.4688 129.906 22.2761C130.348 22.0835 130.722 21.8171 131.028 21.4771C131.345 21.1371 131.589 20.7461 131.759 20.3041C131.94 19.8508 132.031 19.3691 132.031 18.8591V18.8251C132.031 18.3151 131.94 17.8335 131.759 17.3801C131.589 16.9268 131.339 16.5301 131.011 16.1901C130.693 15.8501 130.314 15.5838 129.872 15.3911C129.441 15.1871 128.959 15.0851 128.427 15.0851C127.905 15.0851 127.424 15.1815 126.982 15.3741C126.54 15.5668 126.16 15.8331 125.843 16.1731C125.537 16.5131 125.293 16.9098 125.112 17.3631C124.942 17.8051 124.857 18.2811 124.857 18.7911V18.8251C124.857 19.3351 124.942 19.8168 125.112 20.2701C125.293 20.7235 125.542 21.1201 125.86 21.4601C126.188 21.8001 126.574 22.0721 127.016 22.2761C127.458 22.4688 127.939 22.5651 128.461 22.5651ZM140.09 12.8751H145.53C147.037 12.8751 148.193 13.2775 148.998 14.0821C149.678 14.7621 150.018 15.6688 150.018 16.8021V16.8361C150.018 17.7995 149.78 18.5871 149.304 19.1991C148.839 19.7998 148.227 20.2418 147.468 20.5251L150.375 24.7751H147.315L144.765 20.9671H142.708V24.7751H140.09V12.8751ZM145.36 18.6551C146.006 18.6551 146.499 18.5021 146.839 18.1961C147.19 17.8901 147.366 17.4821 147.366 16.9721V16.9381C147.366 16.3715 147.185 15.9465 146.822 15.6631C146.459 15.3798 145.955 15.2381 145.309 15.2381H142.708V18.6551H145.36ZM155.375 12.8751H160.237C160.951 12.8751 161.586 12.9771 162.141 13.1811C162.708 13.3738 163.184 13.6515 163.569 14.0141C163.966 14.3768 164.266 14.8131 164.47 15.3231C164.686 15.8218 164.793 16.3771 164.793 16.9891V17.0231C164.793 17.7145 164.669 18.3208 164.419 18.8421C164.17 19.3635 163.824 19.7998 163.382 20.1511C162.952 20.5025 162.442 20.7688 161.852 20.9501C161.274 21.1201 160.651 21.2051 159.982 21.2051H157.993V24.7751H155.375V12.8751ZM160.067 18.8761C160.725 18.8761 161.235 18.7061 161.597 18.3661C161.96 18.0148 162.141 17.5841 162.141 17.0741V17.0401C162.141 16.4508 161.949 16.0031 161.563 15.6971C161.189 15.3911 160.674 15.2381 160.016 15.2381H157.993V18.8761H160.067ZM175.511 24.9791C174.593 24.9791 173.748 24.8205 172.978 24.5031C172.207 24.1745 171.538 23.7381 170.972 23.1941C170.416 22.6388 169.98 21.9928 169.663 21.2561C169.357 20.5081 169.204 19.7091 169.204 18.8591V18.8251C169.204 17.9751 169.362 17.1818 169.68 16.4451C169.997 15.6971 170.433 15.0455 170.989 14.4901C171.555 13.9235 172.224 13.4815 172.995 13.1641C173.777 12.8355 174.627 12.6711 175.545 12.6711C176.463 12.6711 177.307 12.8355 178.078 13.1641C178.848 13.4815 179.511 13.9178 180.067 14.4731C180.633 15.0171 181.07 15.6631 181.376 16.4111C181.693 17.1478 181.852 17.9411 181.852 18.7911V18.8251C181.852 19.6751 181.693 20.4741 181.376 21.2221C181.058 21.9588 180.616 22.6105 180.05 23.1771C179.494 23.7325 178.826 24.1745 178.044 24.5031C177.273 24.8205 176.429 24.9791 175.511 24.9791ZM175.545 22.5651C176.077 22.5651 176.559 22.4688 176.99 22.2761C177.432 22.0835 177.806 21.8171 178.112 21.4771C178.429 21.1371 178.673 20.7461 178.843 20.3041C179.024 19.8508 179.115 19.3691 179.115 18.8591V18.8251C179.115 18.3151 179.024 17.8335 178.843 17.3801C178.673 16.9268 178.423 16.5301 178.095 16.1901C177.777 15.8501 177.398 15.5838 176.956 15.3911C176.525 15.1871 176.043 15.0851 175.511 15.0851C174.989 15.0851 174.508 15.1815 174.066 15.3741C173.624 15.5668 173.244 15.8331 172.927 16.1731C172.621 16.5131 172.377 16.9098 172.196 17.3631C172.026 17.8051 171.941 18.2811 171.941 18.7911V18.8251C171.941 19.3351 172.026 19.8168 172.196 20.2701C172.377 20.7235 172.626 21.1201 172.944 21.4601C173.272 21.8001 173.658 22.0721 174.1 22.2761C174.542 22.4688 175.023 22.5651 175.545 22.5651ZM187.174 12.8751H192.614C194.121 12.8751 195.277 13.2775 196.082 14.0821C196.762 14.7621 197.102 15.6688 197.102 16.8021V16.8361C197.102 17.7995 196.864 18.5871 196.388 19.1991C195.923 19.7998 195.311 20.2418 194.552 20.5251L197.459 24.7751H194.399L191.849 20.9671H189.792V24.7751H187.174V12.8751ZM192.444 18.6551C193.09 18.6551 193.583 18.5021 193.923 18.1961C194.274 17.8901 194.45 17.4821 194.45 16.9721V16.9381C194.45 16.3715 194.269 15.9465 193.906 15.6631C193.543 15.3798 193.039 15.2381 192.393 15.2381H189.792V18.6551H192.444ZM206.539 12.7901H208.953L214.053 24.7751H211.316L210.228 22.1061H205.196L204.108 24.7751H201.439L206.539 12.7901ZM209.293 19.7941L207.712 15.9351L206.131 19.7941H209.293ZM220.134 15.2891H216.513V12.8751H226.373V15.2891H222.752V24.7751H220.134V15.2891ZM231.386 12.8751H240.362V15.2041H233.987V17.6181H239.597V19.9471H233.987V22.4461H240.447V24.7751H231.386V12.8751ZM257.951 12.7901H260.365L265.465 24.7751H262.728L261.64 22.1061H256.608L255.52 24.7751H252.851L257.951 12.7901ZM260.705 19.7941L259.124 15.9351L257.543 19.7941H260.705ZM275.114 24.9791C274.242 24.9791 273.431 24.8205 272.683 24.5031C271.935 24.1858 271.289 23.7551 270.745 23.2111C270.201 22.6558 269.776 22.0041 269.47 21.2561C269.164 20.5081 269.011 19.7091 269.011 18.8591V18.8251C269.011 17.9751 269.164 17.1818 269.47 16.4451C269.776 15.6971 270.201 15.0455 270.745 14.4901C271.289 13.9235 271.941 13.4815 272.7 13.1641C273.46 12.8355 274.298 12.6711 275.216 12.6711C275.783 12.6711 276.293 12.7165 276.746 12.8071C277.2 12.8978 277.613 13.0225 277.987 13.1811C278.361 13.3398 278.707 13.5325 279.024 13.7591C279.342 13.9858 279.636 14.2351 279.908 14.5071L278.242 16.4281C277.778 16.0088 277.302 15.6801 276.814 15.4421C276.338 15.2041 275.8 15.0851 275.199 15.0851C274.701 15.0851 274.236 15.1815 273.805 15.3741C273.386 15.5668 273.023 15.8331 272.717 16.1731C272.411 16.5131 272.173 16.9098 272.003 17.3631C271.833 17.8051 271.748 18.2811 271.748 18.7911V18.8251C271.748 19.3351 271.833 19.8168 272.003 20.2701C272.173 20.7235 272.406 21.1201 272.7 21.4601C273.006 21.8001 273.369 22.0721 273.788 22.2761C274.219 22.4688 274.689 22.5651 275.199 22.5651C275.879 22.5651 276.452 22.4405 276.916 22.1911C277.392 21.9305 277.863 21.5905 278.327 21.1711L279.993 22.8541C279.687 23.1828 279.37 23.4775 279.041 23.7381C278.713 23.9988 278.35 24.2255 277.953 24.4181C277.568 24.5995 277.143 24.7355 276.678 24.8261C276.214 24.9281 275.692 24.9791 275.114 24.9791ZM287.86 15.2891H284.239V12.8751H294.099V15.2891H290.478V24.7751H287.86V15.2891ZM299.232 12.8751H301.85V24.7751H299.232V12.8751ZM313.604 24.9791C312.686 24.9791 311.841 24.8205 311.071 24.5031C310.3 24.1745 309.631 23.7381 309.065 23.1941C308.509 22.6388 308.073 21.9928 307.756 21.2561C307.45 20.5081 307.297 19.7091 307.297 18.8591V18.8251C307.297 17.9751 307.455 17.1818 307.773 16.4451C308.09 15.6971 308.526 15.0455 309.082 14.4901C309.648 13.9235 310.317 13.4815 311.088 13.1641C311.87 12.8355 312.72 12.6711 313.638 12.6711C314.556 12.6711 315.4 12.8355 316.171 13.1641C316.941 13.4815 317.604 13.9178 318.16 14.4731C318.726 15.0171 319.163 15.6631 319.469 16.4111C319.786 17.1478 319.945 17.9411 319.945 18.7911V18.8251C319.945 19.6751 319.786 20.4741 319.469 21.2221C319.151 21.9588 318.709 22.6105 318.143 23.1771C317.587 23.7325 316.919 24.1745 316.137 24.5031C315.366 24.8205 314.522 24.9791 313.604 24.9791ZM313.638 22.5651C314.17 22.5651 314.652 22.4688 315.083 22.2761C315.525 22.0835 315.899 21.8171 316.205 21.4771C316.522 21.1371 316.766 20.7461 316.936 20.3041C317.117 19.8508 317.208 19.3691 317.208 18.8591V18.8251C317.208 18.3151 317.117 17.8335 316.936 17.3801C316.766 16.9268 316.516 16.5301 316.188 16.1901C315.87 15.8501 315.491 15.5838 315.049 15.3911C314.618 15.1871 314.136 15.0851 313.604 15.0851C313.082 15.0851 312.601 15.1815 312.159 15.3741C311.717 15.5668 311.337 15.8331 311.02 16.1731C310.714 16.5131 310.47 16.9098 310.289 17.3631C310.119 17.8051 310.034 18.2811 310.034 18.7911V18.8251C310.034 19.3351 310.119 19.8168 310.289 20.2701C310.47 20.7235 310.719 21.1201 311.037 21.4601C311.365 21.8001 311.751 22.0721 312.193 22.2761C312.635 22.4688 313.116 22.5651 313.638 22.5651ZM325.267 12.8751H327.681L333.257 20.2021V12.8751H335.841V24.7751H333.614L327.851 17.2101V24.7751H325.267V12.8751ZM345.931 24.9451C345.024 24.9451 344.134 24.7921 343.262 24.4861C342.389 24.1688 341.596 23.6871 340.882 23.0411L342.429 21.1881C342.973 21.6301 343.528 21.9815 344.095 22.2421C344.673 22.5028 345.302 22.6331 345.982 22.6331C346.526 22.6331 346.945 22.5368 347.24 22.3441C347.546 22.1401 347.699 21.8625 347.699 21.5111V21.4771C347.699 21.3071 347.665 21.1598 347.597 21.0351C347.54 20.8991 347.421 20.7745 347.24 20.6611C347.07 20.5478 346.826 20.4345 346.509 20.3211C346.203 20.2078 345.8 20.0888 345.302 19.9641C344.701 19.8055 344.157 19.6411 343.67 19.4711C343.182 19.2898 342.769 19.0688 342.429 18.8081C342.089 18.5361 341.822 18.2018 341.63 17.8051C341.448 17.4085 341.358 16.9155 341.358 16.3261V16.2921C341.358 15.7481 341.46 15.2608 341.664 14.8301C341.868 14.3881 342.151 14.0085 342.514 13.6911C342.888 13.3738 343.33 13.1301 343.84 12.9601C344.35 12.7901 344.911 12.7051 345.523 12.7051C346.395 12.7051 347.194 12.8355 347.92 13.0961C348.656 13.3568 349.331 13.7308 349.943 14.2181L348.583 16.1901C348.05 15.8275 347.529 15.5441 347.019 15.3401C346.509 15.1248 345.999 15.0171 345.489 15.0171C344.979 15.0171 344.593 15.1191 344.333 15.3231C344.083 15.5158 343.959 15.7595 343.959 16.0541V16.0881C343.959 16.2808 343.993 16.4508 344.061 16.5981C344.14 16.7341 344.276 16.8588 344.469 16.9721C344.661 17.0855 344.922 17.1931 345.251 17.2951C345.591 17.3971 346.016 17.5161 346.526 17.6521C347.126 17.8108 347.659 17.9921 348.124 18.1961C348.6 18.3888 348.996 18.6268 349.314 18.9101C349.642 19.1821 349.886 19.5051 350.045 19.8791C350.215 20.2531 350.3 20.7008 350.3 21.2221V21.2561C350.3 21.8455 350.192 22.3725 349.977 22.8371C349.761 23.2905 349.461 23.6758 349.076 23.9931C348.69 24.2991 348.231 24.5371 347.699 24.7071C347.166 24.8658 346.577 24.9451 345.931 24.9451Z" fill="white"/>
</svg>
